<svg width="250" height="250" viewBox="0 0 250 250" fill="none" xmlns="http://www.w3.org/2000/svg">
<path d="M174.4 191.4C170.8 191.4 167.8 188.4 167.8 184.8C167.8 181.2 170.8 178.2 174.4 178.2C178 178.2 181 181.2 181 184.8C181 188.4 178.1 191.4 174.4 191.4ZM174.4 182.2C173 182.2 171.8 183.4 171.8 184.8C171.8 186.2 173 187.4 174.4 187.4C175.8 187.4 177 186.2 177 184.8C177 183.3 175.9 182.2 174.4 182.2Z" fill="#EBEBEB"/>
<path d="M182.7 153.8H154.8C152.3 153.8 150.2 151.7 150.2 149.2C150.2 146.7 152.3 144.6 154.8 144.6H178.1V117L151.5 90.3999C149.6 88.6999 149.5 85.7999 151.3 83.8999C153 81.9999 155.9 81.8999 157.8 83.6999C157.9 83.7999 158 83.8999 158 83.8999L185.9 111.8C186.8 112.7 187.2 113.8 187.2 115.1V149.2C187.3 151.8 185.2 153.8 182.7 153.8Z" fill="#EBEBEB"/>
<path d="M77.5996 153.8H49.6996C47.1996 153.8 45.0996 151.7 45.0996 149.2V115.1C45.0996 113.9 45.5996 112.7 46.3996 111.8L74.3996 83.9995C76.0996 82.0995 78.9996 81.9995 80.8996 83.7995C82.7996 85.4995 82.8996 88.3995 81.0996 90.2995C80.9996 90.3995 80.8996 90.4995 80.8996 90.4995L54.2996 117V144.6H77.5996C80.0996 144.6 82.1996 146.7 82.1996 149.2C82.1996 151.7 80.1996 153.8 77.5996 153.8Z" fill="#EBEBEB"/>
<path d="M105.9 240.5C103.4 240.5 101.3 238.4 101.3 235.9V209.1C101.3 206.6 103.4 204.5 105.9 204.5C108.4 204.5 110.5 206.6 110.5 209.1V235.8C110.6 238.3 108.6 240.5 106 240.5C106 240.5 106 240.5 105.9 240.5Z" fill="white"/>
<path d="M124.499 247.5C121.999 247.5 119.899 245.4 119.899 242.9V216.1C119.899 213.6 121.999 211.5 124.499 211.5C126.999 211.5 129.099 213.6 129.099 216.1V242.9C129.099 245.4 126.999 247.5 124.499 247.5Z" fill="white"/>
<path d="M124.499 247.5C121.999 247.5 119.899 245.4 119.899 242.9V216.1C119.899 213.6 121.999 211.5 124.499 211.5C126.999 211.5 129.099 213.6 129.099 216.1V242.9C129.099 245.4 126.999 247.5 124.499 247.5Z" fill="white"/>
<path d="M115.2 102.4C105.4 102.4 97.5 94.5 97.5 84.7C97.5 74.9 105.4 67 115.2 67C125 67 132.9 74.9 132.9 84.7C132.9 94.5 125 102.4 115.2 102.4ZM115.2 76.2C110.5 76.2 106.7 80 106.7 84.7C106.7 89.4 110.5 93.2 115.2 93.2C119.9 93.2 123.7 89.4 123.7 84.7C123.6 80.1 119.9 76.3 115.2 76.2Z" fill="#EBEBEB"/>
<path d="M128.9 189.4H101.5C86.6 189.4 74.5 178.3 74.5 164.7V73.4003C74.5 69.7003 75.4 66.0003 77.2 62.7003C78.5 60.5003 81.3 59.8003 83.5 61.1003C85.6 62.3003 86.4 64.9003 85.3 67.0003C84.2 69.0003 83.7 71.2003 83.7 73.4003V164.6C83.7 173.2 91.7 180.1 101.5 180.1H128.9C138.7 180.1 146.7 173.1 146.7 164.6V73.4003C146.7 71.5003 146.3 69.6003 145.5 67.8003C144.5 65.5003 145.5 62.8003 147.8 61.7003C150.1 60.6003 152.8 61.7003 153.9 64.0003C155.2 66.9003 155.9 70.0003 155.9 73.2003V164.6C156 178.3 143.8 189.4 128.9 189.4Z" fill="#EBEBEB"/>
<path d="M82.1 67.7999C79.6 67.7999 77.5 65.6999 77.5 63.1999C77.5 62.3999 77.7 61.5999 78.1 60.8999L111.2 4.79991C112.5 2.59991 115.3 1.89991 117.5 3.19991C118.2 3.59991 118.7 4.09991 119.1 4.79991L152.3 60.9999C153.6 63.1999 152.8 65.9999 150.6 67.2999C148.4 68.4999 145.7 67.7999 144.4 65.6999L115.2 16.2999L86 65.6999C85.2 66.9999 83.7 67.7999 82.1 67.7999Z" fill="#EBEBEB"/>
<path d="M34.9998 80.8004C29.8998 80.8004 25.7998 76.7004 25.7998 71.6004C25.7998 66.5004 29.8998 62.4004 34.9998 62.4004C40.0998 62.4004 44.1998 66.5004 44.1998 71.6004C44.1998 76.6004 40.0998 80.8004 34.9998 80.8004Z" fill="#EBEBEB"/>
<path d="M217.6 53.7C214 53.7 211 50.7 211 47.1C211 43.5 214 40.5 217.6 40.5C221.2 40.5 224.2 43.5 224.2 47.1C224.2 50.7 221.3 53.7 217.6 53.7ZM217.6 44.5C216.2 44.5 215 45.7 215 47.1C215 48.5 216.2 49.7 217.6 49.7C219 49.7 220.2 48.5 220.2 47.1C220.2 45.7 219.1 44.5 217.6 44.5Z" fill="#EBEBEB"/>
<path d="M77.5996 153.8H49.6996C47.1996 153.8 45.0996 151.7 45.0996 149.2V115.1C45.0996 113.9 45.5996 112.7 46.3996 111.8L74.3996 83.9995C76.0996 82.0995 78.9996 81.9995 80.8996 83.7995C82.7996 85.4995 82.8996 88.3995 81.0996 90.2995C80.9996 90.3995 80.8996 90.4995 80.8996 90.4995L54.2996 117V144.6H77.5996C80.0996 144.6 82.1996 146.7 82.1996 149.2C82.1996 151.7 80.1996 153.8 77.5996 153.8Z" fill="#EBEBEB"/>
</svg>
