<svg width="250" height="250" viewBox="0 0 250 250" fill="none" xmlns="http://www.w3.org/2000/svg">
<g clip-path="url(#clip0_1905_23417)">
<path d="M174.401 191.401C170.801 191.401 167.801 188.401 167.801 184.801C167.801 181.201 170.801 178.201 174.401 178.201C178.001 178.201 181.001 181.201 181.001 184.801C181.001 188.401 178.101 191.401 174.401 191.401ZM174.401 182.201C173.001 182.201 171.801 183.401 171.801 184.801C171.801 186.201 173.001 187.401 174.401 187.401C175.801 187.401 177.001 186.201 177.001 184.801C177.001 183.301 175.901 182.201 174.401 182.201Z" fill="#41E1F1"/>
<path d="M182.701 153.8H154.801C152.301 153.8 150.201 151.7 150.201 149.2C150.201 146.7 152.301 144.6 154.801 144.6H178.102V117L151.501 90.3999C149.601 88.6999 149.501 85.7999 151.301 83.8999C153.001 81.9999 155.901 81.8999 157.801 83.6999C157.901 83.7999 158.001 83.8999 158.001 83.8999L185.901 111.8C186.801 112.7 187.201 113.8 187.201 115.1V149.2C187.301 151.8 185.201 153.8 182.701 153.8Z" fill="#41E1F1"/>
<path d="M77.6016 153.801H49.7016C47.2016 153.801 45.1016 151.701 45.1016 149.201V115.101C45.1016 113.901 45.6016 112.702 46.4016 111.802L74.4016 84.0015C76.1016 82.1015 79.0016 82.0015 80.9016 83.8015C82.8016 85.5015 82.9016 88.4015 81.1016 90.3015C81.0016 90.4015 80.9016 90.5015 80.9016 90.5015L54.3016 117.001V144.602H77.6016C80.1016 144.602 82.2016 146.701 82.2016 149.201C82.2016 151.701 80.2016 153.801 77.6016 153.801Z" fill="#41E1F1"/>
<path d="M115.2 102.4C105.4 102.4 97.5 94.5 97.5 84.7C97.5 74.9 105.4 67 115.2 67C125 67 132.9 74.9 132.9 84.7C132.9 94.5 125 102.4 115.2 102.4ZM115.2 76.2C110.5 76.2 106.7 80 106.7 84.7C106.7 89.4 110.5 93.2 115.2 93.2C119.9 93.2 123.7 89.4 123.7 84.7C123.6 80.1 119.9 76.3 115.2 76.2Z" fill="#41E1F1"/>
<path d="M128.9 189.401H101.5C86.6 189.401 74.5 178.301 74.5 164.701V73.4013C74.5 69.7013 75.4 66.0013 77.2 62.7013C78.5 60.5013 81.3 59.8013 83.5 61.1013C85.6 62.3013 86.4 64.9013 85.3 67.0013C84.2 69.0013 83.7 71.2013 83.7 73.4013V164.601C83.7 173.201 91.7 180.101 101.5 180.101H128.9C138.7 180.101 146.7 173.101 146.7 164.601V73.4013C146.7 71.5013 146.3 69.6013 145.5 67.8013C144.5 65.5013 145.5 62.8013 147.8 61.7013C150.1 60.6013 152.8 61.7013 153.9 64.0013C155.2 66.9013 155.9 70.0013 155.9 73.2013V164.601C156 178.301 143.8 189.401 128.9 189.401Z" fill="#41E1F1"/>
<path d="M82.1 67.8009C79.6 67.8009 77.5 65.7009 77.5 63.2009C77.5 62.4009 77.7 61.6009 78.1 60.9009L111.2 4.80088C112.5 2.60088 115.3 1.90088 117.5 3.20088C118.2 3.60088 118.7 4.10088 119.1 4.80088L152.3 61.0009C153.6 63.2009 152.8 66.0009 150.6 67.3009C148.4 68.5009 145.7 67.8009 144.4 65.7009L115.2 16.3009L86 65.7009C85.2 67.0009 83.7 67.8009 82.1 67.8009Z" fill="#41E1F1"/>
<path d="M35.0008 80.8004C29.9008 80.8004 25.8008 76.7004 25.8008 71.6004C25.8008 66.5004 29.9008 62.4004 35.0008 62.4004C40.1008 62.4004 44.2008 66.5004 44.2008 71.6004C44.2008 76.6004 40.1008 80.8004 35.0008 80.8004Z" fill="#41E1F1"/>
<path d="M217.6 53.7C214 53.7 211 50.7 211 47.1C211 43.5 214 40.5 217.6 40.5C221.2 40.5 224.2 43.5 224.2 47.1C224.2 50.7 221.3 53.7 217.6 53.7ZM217.6 44.5C216.2 44.5 215 45.7 215 47.1C215 48.5 216.2 49.7 217.6 49.7C219 49.7 220.2 48.5 220.2 47.1C220.2 45.7 219.1 44.5 217.6 44.5Z" fill="#41E1F1"/>
<path d="M77.6016 153.801H49.7016C47.2016 153.801 45.1016 151.701 45.1016 149.201V115.101C45.1016 113.901 45.6016 112.702 46.4016 111.802L74.4016 84.0015C76.1016 82.1015 79.0016 82.0015 80.9016 83.8015C82.8016 85.5015 82.9016 88.4015 81.1016 90.3015C81.0016 90.4015 80.9016 90.5015 80.9016 90.5015L54.3016 117.001V144.602H77.6016C80.1016 144.602 82.2016 146.701 82.2016 149.201C82.2016 151.701 80.2016 153.801 77.6016 153.801Z" fill="#41E1F1"/>
</g>
<defs>
<clipPath id="clip0_1905_23417">
<rect width="250" height="250" fill="white"/>
</clipPath>
</defs>
</svg>
